<svg id="Layer_1" enable-background="new 0 0 256 256" height="512" viewBox="0 0 256 256" width="512" xmlns="http://www.w3.org/2000/svg"><path d="m128.034 217.72c-1.104 0-2-.896-2-2v-81.99c0-1.104.896-2 2-2s2 .896 2 2v81.989c0 1.105-.895 2.001-2 2.001z" fill="#690589"/><path d="m148.21 92.982-3.99-.006-8.686-.011c.008-.14 0-.278 0-.419v-13.687h-14.999v13.667c0 .142-.008.28 0 .42l-8.705-.011-3.99-.006c-5.246-.007-9.504 4.241-9.511 9.486l-.025 19.518h59.367l.025-19.44c.007-5.246-4.24-9.504-9.486-9.511z" fill="#7bac51"/><path d="m107.79 92.982 3.99-.006 5.182-.007v.011l-1.014.002c-5.246.007-9.493 4.265-9.486 9.511l.025 19.44h-8.158l-.025-19.44c-.007-5.246 4.24-9.504 9.486-9.511z" fill="#99ca6f"/><path d="m148.21 92.982-3.99-.006-5.182-.007v.011l1.014.002c5.246.007 9.493 4.265 9.486 9.511l-.025 19.44h8.158l.025-19.44c.007-5.246-4.24-9.504-9.486-9.511z" fill="#5d8e33"/><path d="m120.534 78.859h14.999v14.42c0 4.142-3.357 7.499-7.499 7.499-4.142 0-7.5-3.358-7.5-7.499z" fill="#ff9f70"/><path d="m128.034 102.778c-5.238 0-9.5-4.262-9.5-9.5v-14.419c0-1.104.896-2 2-2h14.999c1.104 0 2 .896 2 2v14.419c0 5.239-4.262 9.5-9.499 9.5zm-5.5-21.919v12.419c0 3.032 2.468 5.5 5.5 5.5s5.499-2.468 5.499-5.5v-12.419z" fill="#690589"/><path d="m157.671 123.933h-59.367c-.531 0-1.04-.211-1.415-.587-.375-.375-.586-.885-.585-1.416l.025-19.518c.004-3.071 1.204-5.957 3.378-8.126 2.171-2.165 5.055-3.357 8.12-3.357h.016l10.691.015v-12.085c0-1.104.896-2 2-2h14.999c1.104 0 2 .896 2 2v12.108l10.68.015c3.071.004 5.957 1.204 8.126 3.378 2.169 2.175 3.361 5.063 3.357 8.136l-.025 19.439c-.001 1.104-.897 1.998-2 1.998zm-57.364-4h55.367l.022-17.442c.003-2.003-.775-3.887-2.189-5.305s-3.297-2.2-5.3-2.203l-12.677-.018c-.552-.001-1.078-.229-1.456-.632-.377-.402-.571-.943-.537-1.494l-.004-.293v-11.687h-10.999l-.003 11.976c.025.547-.173 1.089-.551 1.484s-.9.627-1.446.627c-.001 0-.002 0-.003 0l-12.694-.018c-.003 0-.007 0-.01 0-1.999 0-3.879.777-5.295 2.189-1.418 1.414-2.2 3.297-2.203 5.3z" fill="#690589"/><path d="m128.015 88.536c-8.356 0-15.131-6.862-15.131-15.327v-10.612c0-8.465 6.774-15.327 15.131-15.327 8.356 0 15.131 6.862 15.131 15.327v10.611c0 8.466-6.774 15.328-15.131 15.328z" fill="#ff9f70"/><path d="m128.015 90.536c-9.445 0-17.13-7.772-17.13-17.327v-10.611c0-9.555 7.685-17.327 17.13-17.327 9.446 0 17.131 7.772 17.131 17.327v10.611c0 9.555-7.685 17.327-17.131 17.327zm0-41.265c-7.24 0-13.13 5.979-13.13 13.327v10.611c0 7.349 5.89 13.327 13.13 13.327s13.131-5.979 13.131-13.327v-10.611c0-7.349-5.891-13.327-13.131-13.327z" fill="#690589"/><path d="m201.518 89.832v-24.628h-13.629c-1.583-7.741-4.639-14.941-8.847-21.315l9.649-9.649-17.414-17.414-9.649 9.65c-6.374-4.208-13.574-7.264-21.315-8.847v-13.629h-24.627v13.629c-7.741 1.583-14.942 4.639-21.315 8.847l-9.649-9.65-17.414 17.414 9.65 9.649c-4.208 6.373-7.264 13.574-8.847 21.315h-13.629v24.628h13.628c1.583 7.741 4.639 14.941 8.847 21.315l-9.65 9.649 17.414 17.414 9.649-9.649c6.373 4.208 13.574 7.264 21.315 8.847v13.628h24.627v-13.628c7.741-1.583 14.942-4.639 21.315-8.847l9.649 9.649 17.414-17.414-9.649-9.649c4.208-6.373 7.264-13.574 8.847-21.315zm-73.518 27.56c-22.021 0-39.873-17.852-39.873-39.874 0-22.021 17.852-39.873 39.873-39.873 22.022 0 39.874 17.852 39.874 39.873-.001 22.022-17.853 39.874-39.874 39.874z" fill="#fcc24c"/><path d="m189.137 65.204h12.382v24.628h-12.382z" fill="#dea42e"/><path d="m54.482 65.204h12.382v24.628h-12.382z" fill="#fce06a"/><path d="m215.72 217.783c-1.104 0-2-.896-2-2v-40.383c0-4.239-3.448-7.688-7.688-7.688h-156.064c-4.239 0-7.688 3.448-7.688 7.688v40.319c0 1.104-.896 2-2 2s-2-.896-2-2v-40.319c0-6.444 5.243-11.688 11.688-11.688h156.064c6.444 0 11.688 5.243 11.688 11.688v40.383c0 1.105-.896 2-2 2z" fill="#690589"/><path d="m140.313 153.036h-24.627c-1.104 0-2-.896-2-2v-12.018c-6.739-1.562-13.131-4.215-19.04-7.904l-8.511 8.511c-.75.75-2.078.75-2.828 0l-17.413-17.415c-.781-.781-.781-2.047 0-2.828l8.51-8.511c-3.689-5.908-6.342-12.298-7.903-19.039h-12.02c-1.104 0-2-.896-2-2v-24.628c0-1.104.896-2 2-2h12.019c1.562-6.741 4.214-13.131 7.903-19.039l-8.51-8.511c-.781-.781-.781-2.047 0-2.828l17.414-17.414c.781-.781 2.047-.781 2.828 0l8.511 8.51c5.909-3.688 12.301-6.342 19.04-7.903v-12.019c0-1.104.896-2 2-2h24.627c1.104 0 2 .896 2 2v12.019c6.74 1.562 13.131 4.215 19.039 7.903l8.511-8.51c.781-.781 2.047-.781 2.828 0l17.415 17.414c.375.375.586.884.586 1.414s-.211 1.039-.586 1.414l-8.51 8.511c3.689 5.908 6.342 12.298 7.903 19.039h12.019c1.104 0 2 .896 2 2v24.628c0 1.104-.896 2-2 2h-12.018c-1.562 6.741-4.214 13.131-7.903 19.039l8.51 8.511c.781.781.781 2.047 0 2.828l-17.415 17.415c-.75.75-2.078.75-2.828 0l-8.51-8.51c-5.909 3.688-12.301 6.341-19.04 7.903v12.018c-.001 1.105-.896 2-2.001 2zm-22.626-4h20.627v-11.628c0-.95.668-1.769 1.599-1.959 7.358-1.506 14.294-4.385 20.615-8.557.794-.526 1.844-.418 2.516.255l8.234 8.235 14.587-14.587-8.235-8.235c-.672-.672-.778-1.724-.255-2.516 4.173-6.319 7.051-13.255 8.557-20.613.189-.932 1.009-1.6 1.959-1.6h11.629v-20.627h-11.63c-.95 0-1.77-.668-1.959-1.6-1.506-7.358-4.384-14.294-8.557-20.613-.523-.792-.417-1.844.255-2.516l8.235-8.235-14.587-14.586-8.235 8.235c-.672.672-1.724.78-2.516.255-6.32-4.173-13.256-7.052-20.613-8.557-.932-.189-1.6-1.009-1.6-1.959v-11.628h-20.627v11.629c0 .95-.668 1.77-1.6 1.959-7.357 1.505-14.293 4.384-20.614 8.557-.792.524-1.845.416-2.516-.255l-8.235-8.235-14.585 14.585 8.235 8.235c.672.672.778 1.724.255 2.516-4.173 6.319-7.051 13.255-8.557 20.613-.189.932-1.009 1.6-1.959 1.6h-11.629v20.628h11.629c.95 0 1.77.668 1.959 1.6 1.506 7.358 4.384 14.294 8.557 20.613.523.792.417 1.844-.255 2.516l-8.235 8.235 14.586 14.587 8.235-8.235c.672-.672 1.723-.778 2.516-.255 6.321 4.172 13.257 7.051 20.615 8.557.931.19 1.599 1.009 1.599 1.959zm10.313-29.644c-23.089 0-41.873-18.784-41.873-41.873 0-23.09 18.784-41.874 41.873-41.874s41.873 18.784 41.873 41.874c0 23.088-18.784 41.873-41.873 41.873zm0-79.747c-20.883 0-37.873 16.99-37.873 37.874 0 20.883 16.99 37.873 37.873 37.873s37.873-16.99 37.873-37.873c0-20.884-16.99-37.874-37.873-37.874z" fill="#690589"/><path d="m71.868 252h-63.176c-2.591 0-4.692-2.101-4.692-4.692v-63.176c0-2.592 2.101-4.692 4.692-4.692h63.176c2.591 0 4.692 2.101 4.692 4.692v63.176c.001 2.591-2.1 4.692-4.692 4.692z" fill="#ff4397"/><path d="m69.053 179.439v72.561h2.815c2.592 0 4.692-2.101 4.692-4.692v-63.176c0-2.592-2.101-4.692-4.692-4.692h-2.815z" fill="#e12579"/><path d="m4 184.132v63.176c0 2.591 2.101 4.692 4.692 4.692h2.815v-72.561h-2.815c-2.591 0-4.692 2.101-4.692 4.693z" fill="#ff61b5"/><path d="m27.573 215.783v-12.586c0-2.518 2.726-4.091 4.906-2.832l10.9 6.293 10.899 6.293c2.181 1.259 2.181 4.406 0 5.665l-10.899 6.293-10.9 6.293c-2.18 1.259-4.906-.315-4.906-2.832z" fill="#fcc24c"/><path d="m71.868 254h-63.176c-3.69 0-6.692-3.002-6.692-6.692v-63.176c0-3.69 3.002-6.692 6.692-6.692h63.176c3.69 0 6.692 3.002 6.692 6.692v63.176c.001 3.69-3.001 6.692-6.692 6.692zm-63.176-72.561c-1.484 0-2.692 1.208-2.692 2.692v63.176c0 1.485 1.208 2.693 2.692 2.693h63.176c1.484 0 2.692-1.208 2.692-2.692v-63.176c0-1.484-1.208-2.692-2.692-2.692h-63.176z" fill="#690589"/><path d="m11.508 204.166c-1.104 0-2-.896-2-2v-12c0-1.104.896-2 2-2s2 .896 2 2v12c0 1.105-.896 2-2 2z" fill="#690589"/><path d="m30.844 233.648c-.905 0-1.81-.238-2.635-.715-1.65-.952-2.636-2.659-2.636-4.564v-25.171c0-1.905.985-3.612 2.635-4.565 1.65-.951 3.621-.951 5.271 0l21.799 12.586c1.65.953 2.636 2.659 2.636 4.565 0 1.905-.985 3.611-2.636 4.564l-21.799 12.585c-.825.477-1.73.715-2.635.715zm.007-31.725c-.293 0-.526.107-.642.175-.191.11-.636.438-.636 1.101v25.171c0 .662.444.99.636 1.101.19.11.695.33 1.271 0l21.799-12.586c.573-.331.636-.88.636-1.1 0-.221-.062-.77-.636-1.101l-21.799-12.586c-.225-.13-.44-.175-.629-.175z" fill="#690589"/><path d="m159.588 179.439h-63.176c-2.592 0-4.692 2.101-4.692 4.692v63.176c0 2.591 2.101 4.692 4.692 4.692h63.176c2.592 0 4.692-2.101 4.692-4.692v-63.176c0-2.591-2.1-4.692-4.692-4.692z" fill="#fcc24c"/><path d="m156.773 179.439v72.561h2.815c2.592 0 4.692-2.101 4.692-4.692v-63.176c0-2.591-2.101-4.692-4.692-4.692h-2.815z" fill="#dea42e"/><path d="m91.72 184.132v63.176c0 2.592 2.101 4.692 4.692 4.692h2.815v-72.561h-2.815c-2.592 0-4.692 2.101-4.692 4.693z" fill="#fce06a"/><path d="m159.588 254h-63.176c-3.69 0-6.692-3.002-6.692-6.692v-63.176c0-3.69 3.002-6.692 6.692-6.692h63.176c3.69 0 6.692 3.002 6.692 6.692v63.176c0 3.69-3.002 6.692-6.692 6.692zm-63.176-72.561c-1.484 0-2.692 1.208-2.692 2.692v63.176c0 1.484 1.208 2.692 2.692 2.692h63.176c1.484 0 2.692-1.208 2.692-2.692v-63.176c0-1.484-1.208-2.692-2.692-2.692z" fill="#690589"/><path d="m105.125 234.718c1.062 2.964 5.519 4.078 9.955 2.488 4.435-1.59 7.17-5.282 6.107-8.246-1.062-2.964-5.519-4.078-9.955-2.488-4.435 1.59-7.169 5.282-6.107 8.246z" fill="#ff4397"/><path d="m146.559 200.856-25.142 7.306v-7.347l25.142-7.306z" fill="#ff4397"/><path d="m130.235 227.351c1.062 2.964 5.519 4.078 9.955 2.488s7.17-5.281 6.107-8.245c-1.062-2.964-5.519-4.078-9.955-2.488-4.435 1.59-7.17 5.281-6.107 8.245z" fill="#ff4397"/><g fill="#690589"><path d="m121.417 210.162c-.428 0-.851-.138-1.201-.4-.503-.378-.799-.971-.799-1.6v-7.348c0-.89.588-1.672 1.442-1.921l25.142-7.306c.6-.175 1.255-.057 1.759.321.503.378.799.971.799 1.6v7.347c0 .89-.588 1.672-1.441 1.921l-25.142 7.307c-.184.053-.372.079-.559.079zm2-7.846v3.182l21.142-6.145v-3.181zm23.142-1.461h.01z"/><path d="m121.417 232c-1.104 0-2-.896-2-2v-21.838c0-1.104.896-2 2-2s2 .896 2 2v21.838c0 1.104-.896 2-2 2z"/><path d="m146.559 224.675c-1.104 0-2-.896-2-2v-21.838c0-1.104.896-2 2-2s2 .896 2 2v21.838c0 1.104-.896 2-2 2z"/><path d="m136.155 232.572c-3.69 0-6.768-1.655-7.804-4.546-1.456-4.065 1.758-8.811 7.315-10.803 5.559-1.991 11.056-.369 12.513 3.695 1.457 4.065-1.757 8.812-7.315 10.804-1.606.577-3.209.85-4.709.85zm-4.038-5.895c.591 1.647 3.771 2.579 7.397 1.28 3.623-1.299 5.49-4.04 4.899-5.688-.59-1.647-3.775-2.579-7.397-1.279-3.622 1.298-5.489 4.039-4.899 5.687z"/><path d="m111.046 239.938c-3.69 0-6.768-1.655-7.804-4.546-1.456-4.065 1.758-8.81 7.315-10.803 5.559-1.994 11.056-.369 12.513 3.696.735 2.052.273 4.423-1.268 6.503-1.387 1.872-3.534 3.398-6.048 4.3-1.606.577-3.208.85-4.708.85zm-4.038-5.895c.59 1.647 3.771 2.579 7.397 1.28 1.751-.628 3.275-1.69 4.184-2.915.43-.581 1.096-1.714.716-2.772-.591-1.648-3.772-2.582-7.397-1.28-3.624 1.298-5.49 4.04-4.9 5.687z"/></g><path d="m247.308 252h-63.176c-2.592 0-4.692-2.101-4.692-4.692v-63.176c0-2.592 2.101-4.692 4.692-4.692h63.176c2.591 0 4.692 2.101 4.692 4.692v63.176c0 2.591-2.101 4.692-4.692 4.692z" fill="#f4efed"/><path d="m244.492 179.439v72.561h2.815c2.591 0 4.692-2.101 4.692-4.692v-63.176c0-2.592-2.101-4.692-4.692-4.692h-2.815z" fill="#d6d1cf"/><path d="m179.439 184.132v63.176c0 2.591 2.101 4.692 4.692 4.692h2.815v-72.561h-2.815c-2.591 0-4.692 2.101-4.692 4.693z" fill="#fff"/><circle cx="210.338" cy="199.067" fill="#fcc24c" r="7.026"/><path d="m200.767 241.76h-15.881l7.941-13.754 7.94-13.753 7.941 13.753 7.94 13.754z" fill="#7bac51"/><path d="m247.308 254h-63.176c-3.69 0-6.692-3.002-6.692-6.692v-63.176c0-3.69 3.002-6.692 6.692-6.692h63.176c3.69 0 6.692 3.002 6.692 6.692v63.176c0 3.69-3.002 6.692-6.692 6.692zm-63.176-72.561c-1.484 0-2.692 1.208-2.692 2.692v63.176c0 1.484 1.208 2.692 2.692 2.692h63.176c1.484 0 2.692-1.208 2.692-2.692v-63.176c0-1.484-1.208-2.692-2.692-2.692z" fill="#690589"/><path d="m216.648 243.76h-31.763c-.715 0-1.375-.381-1.732-1-.356-.619-.356-1.381 0-2l15.882-27.507c.357-.619 1.018-1 1.732-1 .715 0 1.375.381 1.732 1l15.881 27.507c.356.619.356 1.381 0 2-.357.619-1.017 1-1.732 1zm-28.298-4h24.835l-12.417-21.507z" fill="#690589"/><path d="m210.338 208.093c-4.978 0-9.026-4.049-9.026-9.025 0-4.978 4.049-9.026 9.026-9.026s9.025 4.049 9.025 9.026c0 4.976-4.049 9.025-9.025 9.025zm0-14.052c-2.771 0-5.026 2.255-5.026 5.026s2.255 5.025 5.026 5.025 5.025-2.254 5.025-5.025-2.254-5.026-5.025-5.026z" fill="#690589"/><path d="m225.225 241.76h-21.328l10.664-18.471 10.664-18.471 10.664 18.471 10.664 18.471z" fill="#7bac51"/><path d="m246.553 243.76h-42.655c-.715 0-1.375-.381-1.732-1-.356-.619-.356-1.381 0-2l21.328-36.941c.357-.619 1.018-1 1.732-1s1.375.381 1.732 1l21.327 36.941c.356.619.356 1.381 0 2-.357.619-1.017 1-1.732 1zm-39.192-4h35.728l-17.863-30.941z" fill="#690589"/></svg>