<svg id="Layer_1" enable-background="new 0 0 256 256" height="512" viewBox="0 0 256 256" width="512" xmlns="http://www.w3.org/2000/svg"><path d="m216.999 240.936h-177.998c-13.808 0-25.001-11.193-25.001-25.001v-153.697c0-13.807 11.193-25.001 25.001-25.001h177.999c13.807 0 25.001 11.193 25.001 25.001v153.697c-.001 13.808-11.194 25.001-25.002 25.001z" fill="#f9cfcf"/><g fill="#f9a7a7"><path d="m85.224 133.531v-22.206c0-2.23 1.808-4.037 4.038-4.037h28.262c2.23 0 4.037 1.808 4.037 4.037v22.206c0 2.23-1.808 4.037-4.037 4.037h-28.263c-2.229 0-4.037-1.808-4.037-4.037z"/><path d="m133.834 133.531v-22.206c0-2.23 1.808-4.037 4.038-4.037h28.262c2.23 0 4.037 1.808 4.037 4.037v22.206c0 2.23-1.808 4.037-4.037 4.037h-28.262c-2.23 0-4.038-1.808-4.038-4.037z"/><path d="m182.444 133.531v-22.206c0-2.23 1.808-4.037 4.037-4.037h28.262c2.23 0 4.038 1.808 4.038 4.037v22.206c0 2.23-1.808 4.037-4.038 4.037h-28.262c-2.229 0-4.037-1.808-4.037-4.037z"/><path d="m36.614 173.906v-22.206c0-2.23 1.808-4.038 4.038-4.038h28.263c2.23 0 4.037 1.808 4.037 4.038v22.206c0 2.23-1.808 4.037-4.037 4.037h-28.264c-2.23 0-4.037-1.808-4.037-4.037z"/><path d="m85.224 173.906v-22.206c0-2.23 1.808-4.038 4.038-4.038h28.262c2.23 0 4.037 1.808 4.037 4.038v22.206c0 2.23-1.808 4.037-4.037 4.037h-28.263c-2.229 0-4.037-1.808-4.037-4.037z"/><path d="m133.834 173.906v-22.206c0-2.23 1.808-4.038 4.038-4.038h28.262c2.23 0 4.037 1.808 4.037 4.038v22.206c0 2.23-1.808 4.037-4.037 4.037h-28.262c-2.23 0-4.038-1.808-4.038-4.037z"/><path d="m182.444 173.906v-22.206c0-2.23 1.808-4.038 4.037-4.038h28.262c2.23 0 4.038 1.808 4.038 4.038v22.206c0 2.23-1.808 4.037-4.038 4.037h-28.262c-2.229 0-4.037-1.808-4.037-4.037z"/><path d="m36.614 216.299v-22.206c0-2.23 1.808-4.038 4.038-4.038h28.263c2.23 0 4.037 1.808 4.037 4.038v22.206c0 2.23-1.808 4.037-4.037 4.037h-28.264c-2.23.001-4.037-1.807-4.037-4.037z"/><path d="m85.224 216.299v-22.206c0-2.23 1.808-4.038 4.038-4.038h28.262c2.23 0 4.037 1.808 4.037 4.038v22.206c0 2.23-1.808 4.037-4.037 4.037h-28.263c-2.229.001-4.037-1.807-4.037-4.037z"/><path d="m133.834 216.299v-22.206c0-2.23 1.808-4.038 4.038-4.038h28.262c2.23 0 4.037 1.808 4.037 4.038v22.206c0 2.23-1.808 4.037-4.037 4.037h-28.262c-2.23.001-4.038-1.807-4.038-4.037z"/></g><path d="m14 62.238v26.421h228v-26.421c0-13.807-11.193-25.001-25.001-25.001h-177.998c-13.808 0-25.001 11.194-25.001 25.001z" fill="#4671c6"/><path d="m216.999 242.936h-177.998c-14.889 0-27.001-12.112-27.001-27v-153.698c0-14.889 12.112-27.001 27.001-27.001h177.998c14.889 0 27.001 12.113 27.001 27.001v153.697c0 14.888-12.112 27.001-27.001 27.001zm-177.998-203.699c-12.683 0-23.001 10.319-23.001 23.001v153.697c0 12.683 10.318 23 23.001 23h177.998c12.683 0 23.001-10.317 23.001-23v-153.697c0-12.683-10.318-23.001-23.001-23.001z" fill="#3762cc"/><path d="m242 90.659h-228c-1.104 0-2-.896-2-2v-26.421c0-14.889 12.112-27.001 27.001-27.001h177.998c14.889 0 27.001 12.113 27.001 27.001v26.421c0 1.105-.896 2-2 2zm-226-4h224v-24.421c0-12.683-10.318-23.001-23.001-23.001h-177.998c-12.683 0-23.001 10.319-23.001 23.001z" fill="#3762cc"/><path d="m192.125 68.502h-.5c-6.558 0-11.875-5.317-11.875-11.875v-29.688c0-6.558 5.317-11.875 11.875-11.875h.5c6.558 0 11.875 5.317 11.875 11.875v29.688c0 6.558-5.317 11.875-11.875 11.875z" fill="#a4c9ff"/><path d="m64.375 68.502h-.5c-6.558 0-11.875-5.317-11.875-11.875v-29.688c0-6.558 5.317-11.875 11.875-11.875h.5c6.558 0 11.875 5.317 11.875 11.875v29.688c0 6.558-5.317 11.875-11.875 11.875z" fill="#a4c9ff"/><path d="m192.125 70.502h-.5c-7.65 0-13.875-6.225-13.875-13.875v-29.688c0-7.65 6.225-13.875 13.875-13.875h.5c7.65 0 13.875 6.225 13.875 13.875v29.688c0 7.65-6.225 13.875-13.875 13.875zm-.5-53.438c-5.445 0-9.875 4.43-9.875 9.875v29.688c0 5.445 4.43 9.875 9.875 9.875h.5c5.445 0 9.875-4.43 9.875-9.875v-29.688c0-5.445-4.43-9.875-9.875-9.875z" fill="#3762cc"/><path d="m64.375 70.502h-.5c-7.65 0-13.875-6.225-13.875-13.875v-29.688c0-7.65 6.225-13.875 13.875-13.875h.5c7.65 0 13.875 6.225 13.875 13.875v29.688c0 7.65-6.225 13.875-13.875 13.875zm-.5-53.438c-5.445 0-9.875 4.43-9.875 9.875v29.688c0 5.445 4.43 9.875 9.875 9.875h.5c5.445 0 9.875-4.43 9.875-9.875v-29.688c0-5.445-4.43-9.875-9.875-9.875z" fill="#3762cc"/><path d="m127.948 68.502h-.5c-6.558 0-11.875-5.317-11.875-11.875v-29.688c0-6.558 5.317-11.875 11.875-11.875h.5c6.558 0 11.875 5.317 11.875 11.875v29.688c0 6.558-5.317 11.875-11.875 11.875z" fill="#a4c9ff"/><path d="m192.125 70.502h-.5c-7.65 0-13.875-6.225-13.875-13.875v-29.688c0-7.65 6.225-13.875 13.875-13.875h.5c7.65 0 13.875 6.225 13.875 13.875v29.688c0 7.65-6.225 13.875-13.875 13.875zm-.5-53.438c-5.445 0-9.875 4.43-9.875 9.875v29.688c0 5.445 4.43 9.875 9.875 9.875h.5c5.445 0 9.875-4.43 9.875-9.875v-29.688c0-5.445-4.43-9.875-9.875-9.875z" fill="#3762cc"/><path d="m127.947 70.502h-.499c-7.65 0-13.875-6.225-13.875-13.875v-29.688c0-7.65 6.225-13.875 13.875-13.875h.499c7.65 0 13.875 6.225 13.875 13.875v29.688c0 7.65-6.224 13.875-13.875 13.875zm-.499-53.438c-5.445 0-9.875 4.43-9.875 9.875v29.688c0 5.445 4.43 9.875 9.875 9.875h.499c5.445 0 9.875-4.43 9.875-9.875v-29.688c0-5.445-4.43-9.875-9.875-9.875z" fill="#3762cc"/><path d="m36.614 133.531v-22.206c0-2.23 1.808-4.037 4.038-4.037h28.263c2.23 0 4.037 1.808 4.037 4.037v22.206c0 2.23-1.808 4.037-4.037 4.037h-28.264c-2.23 0-4.037-1.808-4.037-4.037z" fill="#f9a7a7"/><path d="m182.444 216.299v-22.206c0-2.23 1.808-4.038 4.037-4.038h28.262c2.23 0 4.038 1.808 4.038 4.038v22.206c0 2.23-1.808 4.037-4.038 4.037h-28.262c-2.229.001-4.037-1.807-4.037-4.037z" fill="#f9a7a7"/><path d="m101.663 131.268c-.065 0-.13-.001-.195-.003-1.917-.058-3.691-.959-4.869-2.472l-8.693-11.166c-1.335-1.715-1.028-4.187.688-5.522 1.714-1.336 4.189-1.027 5.522.688l7.613 9.778 19.381-22.045c1.435-1.633 3.92-1.792 5.554-.357 1.632 1.435 1.791 3.921.357 5.553l-20.543 23.367c-1.224 1.392-2.969 2.179-4.815 2.179z" fill="#6bdddd"/><path d="m101.663 171.768c-.065 0-.13-.001-.195-.003-1.917-.058-3.691-.959-4.869-2.472l-8.693-11.166c-1.335-1.715-1.028-4.187.688-5.522 1.714-1.336 4.189-1.027 5.522.688l7.613 9.778 19.381-22.045c1.435-1.633 3.92-1.792 5.554-.357 1.632 1.435 1.791 3.921.357 5.553l-20.543 23.367c-1.224 1.392-2.969 2.179-4.815 2.179z" fill="#6bdddd"/><path d="m101.663 214.162c-.065 0-.13-.001-.195-.003-1.917-.058-3.691-.959-4.869-2.472l-8.693-11.166c-1.335-1.715-1.028-4.187.688-5.522 1.714-1.336 4.189-1.027 5.522.688l7.613 9.778 19.381-22.045c1.435-1.633 3.92-1.792 5.554-.357 1.632 1.435 1.791 3.921.357 5.553l-20.543 23.367c-1.224 1.391-2.969 2.179-4.815 2.179z" fill="#6bdddd"/></svg>